<mxfile host="app.diagrams.net" modified="2022-11-11T16:05:36.006Z" agent="5.0 (X11)" etag="ljfrTvSHuXK5JHzMvw5t" version="20.5.3" type="github">
  <diagram id="y6EU2KJTZWlAWzE5b2F7" name="Ejercicio 4">
    <mxGraphModel dx="1422" dy="727" grid="1" gridSize="10" guides="1" tooltips="1" connect="1" arrows="1" fold="1" page="1" pageScale="1" pageWidth="827" pageHeight="1169" math="0" shadow="0">
      <root>
        <mxCell id="0" />
        <mxCell id="1" parent="0" />
      </root>
    </mxGraphModel>
  </diagram>
</mxfile>
